<svg xmlns="http://www.w3.org/2000/svg" xmlns:xlink="http://www.w3.org/1999/xlink" width="44" height="44" viewBox="0 0 44 44">
  <defs>
    <style>
      .cls-1 {
        fill-rule: evenodd;
        filter: url(#filter);
      }
    </style>
    <filter id="filter" x="0" y="0" width="44" height="44" filterUnits="userSpaceOnUse">
      <feFlood result="flood" flood-color="#c7b299"/>
      <feComposite result="composite" operator="in" in2="SourceGraphic"/>
      <feBlend result="blend" in2="SourceGraphic"/>
    </filter>
  </defs>
  <path id="icon" class="cls-1" d="M19.937,30.25c5.688,0,10.313-5.629,10.313-12.547S25.625,5.156,19.937,5.156a9.445,9.445,0,0,0-7.395,3.788A14.012,14.012,0,0,0,9.625,17.7C9.625,24.622,14.25,30.25,19.937,30.25Zm0-22.344c4.169,0,7.563,4.395,7.563,9.8s-3.393,9.8-7.562,9.8-7.562-4.394-7.565-9.8S15.765,7.906,19.937,7.906ZM28.6,28.875a1.375,1.375,0,1,0,0,2.75,8.537,8.537,0,0,1,8.527,8.528,1.1,1.1,0,0,1-1.1,1.1H3.848a1.1,1.1,0,0,1-1.1-1.1,8.536,8.536,0,0,1,8.524-8.528,1.375,1.375,0,1,0,0-2.75A11.289,11.289,0,0,0,0,40.153,3.852,3.852,0,0,0,3.848,44H36.024a3.854,3.854,0,0,0,3.851-3.847A11.291,11.291,0,0,0,28.6,28.875ZM20.943,3.629a6.049,6.049,0,0,1,3.12-.878c4.169,0,7.562,4.395,7.562,9.8a12.449,12.449,0,0,1-.32,2.828,1.373,1.373,0,0,0,1.023,1.652,1.305,1.305,0,0,0,.316.037A1.376,1.376,0,0,0,33.982,16a15.292,15.292,0,0,0,.394-3.457C34.375,5.629,29.75,0,24.063,0a8.883,8.883,0,0,0-4.518,1.261A1.375,1.375,0,0,0,20.943,3.629ZM33,23.375a1.375,1.375,0,1,0,0,2.75,8.385,8.385,0,0,1,8.25,8.618,1.059,1.059,0,0,1-.094.448,1.375,1.375,0,0,0,2.514,1.117A3.843,3.843,0,0,0,44,34.74,11.136,11.136,0,0,0,33,23.375Z"/>
</svg>
